<?xml version="1.0" encoding="UTF-8" standalone="no"?>
<!DOCTYPE svg PUBLIC "-//W3C//DTD SVG 1.1//EN" "http://www.w3.org/Graphics/SVG/1.1/DTD/svg11.dtd">
<svg width="100%" height="100%" viewBox="0 0 1179 289" version="1.1" xmlns="http://www.w3.org/2000/svg" xmlns:xlink="http://www.w3.org/1999/xlink" xml:space="preserve" xmlns:serif="http://www.serif.com/" style="fill-rule:evenodd;clip-rule:evenodd;stroke-linejoin:round;stroke-miterlimit:2;">
    <g transform="matrix(1,0,0,1,-152.483,-8.36664)">
        <g transform="matrix(400,0,0,400,148.535,326.633)">
            <path d="M0.13,-0.793C0.143,-0.796 0.166,-0.796 0.199,-0.795C0.231,-0.794 0.258,-0.791 0.279,-0.786C0.29,-0.784 0.298,-0.781 0.302,-0.777C0.305,-0.772 0.304,-0.769 0.299,-0.766C0.293,-0.763 0.284,-0.761 0.273,-0.762C0.253,-0.764 0.234,-0.761 0.215,-0.752C0.196,-0.744 0.173,-0.74 0.146,-0.739L0.107,-0.738L0.101,-0.706C0.097,-0.682 0.096,-0.658 0.099,-0.633C0.101,-0.61 0.099,-0.571 0.093,-0.518C0.086,-0.465 0.078,-0.416 0.068,-0.372C0.061,-0.342 0.055,-0.296 0.052,-0.234C0.048,-0.171 0.049,-0.137 0.054,-0.13C0.058,-0.123 0.101,-0.124 0.183,-0.134C0.186,-0.135 0.198,-0.135 0.217,-0.135C0.227,-0.134 0.234,-0.133 0.237,-0.131C0.24,-0.129 0.24,-0.126 0.239,-0.121C0.238,-0.114 0.23,-0.11 0.217,-0.107C0.203,-0.103 0.162,-0.098 0.093,-0.09C0.045,-0.085 0.019,-0.085 0.014,-0.09C0.009,-0.094 0.009,-0.119 0.014,-0.164C0.017,-0.181 0.02,-0.22 0.023,-0.283C0.025,-0.345 0.032,-0.391 0.043,-0.42C0.05,-0.438 0.055,-0.502 0.056,-0.613C0.057,-0.72 0.06,-0.778 0.063,-0.786C0.067,-0.791 0.074,-0.793 0.085,-0.791C0.098,-0.788 0.113,-0.789 0.13,-0.793Z" style="fill:rgb(242,242,242);fill-rule:nonzero;"/>
        </g>
        <g transform="matrix(400,0,0,400,273.335,326.633)">
            <path d="M0.049,-0.688C0.054,-0.703 0.064,-0.697 0.079,-0.67C0.083,-0.661 0.087,-0.656 0.092,-0.654C0.097,-0.651 0.106,-0.65 0.119,-0.651C0.141,-0.653 0.165,-0.651 0.191,-0.644C0.217,-0.636 0.235,-0.628 0.245,-0.619C0.268,-0.597 0.278,-0.571 0.275,-0.541C0.272,-0.511 0.256,-0.484 0.228,-0.459C0.187,-0.424 0.161,-0.402 0.15,-0.393C0.138,-0.384 0.131,-0.38 0.128,-0.38C0.121,-0.38 0.112,-0.372 0.1,-0.357C0.087,-0.341 0.08,-0.328 0.078,-0.317C0.074,-0.299 0.079,-0.288 0.093,-0.285C0.106,-0.281 0.138,-0.281 0.189,-0.286C0.23,-0.29 0.263,-0.293 0.29,-0.295C0.317,-0.297 0.338,-0.298 0.355,-0.299C0.372,-0.299 0.384,-0.298 0.391,-0.297C0.398,-0.296 0.401,-0.293 0.401,-0.29C0.401,-0.285 0.398,-0.282 0.393,-0.281C0.388,-0.279 0.378,-0.278 0.363,-0.278C0.338,-0.278 0.315,-0.276 0.296,-0.272C0.278,-0.268 0.24,-0.261 0.181,-0.252L0.096,-0.24L0.075,-0.255C0.062,-0.264 0.054,-0.267 0.051,-0.264C0.047,-0.26 0.047,-0.249 0.05,-0.23C0.053,-0.213 0.051,-0.2 0.045,-0.19C0.039,-0.179 0.031,-0.176 0.021,-0.18C0.015,-0.182 0.012,-0.188 0.011,-0.197C0.01,-0.206 0.01,-0.231 0.012,-0.27C0.015,-0.329 0.019,-0.374 0.024,-0.405C0.041,-0.525 0.046,-0.591 0.039,-0.604C0.034,-0.614 0.035,-0.626 0.042,-0.641C0.05,-0.655 0.053,-0.665 0.05,-0.67C0.046,-0.675 0.046,-0.681 0.049,-0.688ZM0.231,-0.578C0.22,-0.607 0.197,-0.62 0.163,-0.617C0.145,-0.616 0.131,-0.615 0.122,-0.614C0.112,-0.612 0.105,-0.61 0.1,-0.607C0.094,-0.604 0.091,-0.6 0.089,-0.595C0.085,-0.586 0.079,-0.545 0.072,-0.474C0.065,-0.403 0.061,-0.365 0.06,-0.362C0.059,-0.356 0.059,-0.352 0.06,-0.349C0.06,-0.346 0.064,-0.349 0.073,-0.357C0.082,-0.364 0.09,-0.373 0.099,-0.382C0.107,-0.391 0.111,-0.397 0.111,-0.399C0.111,-0.405 0.138,-0.428 0.192,-0.468C0.209,-0.48 0.222,-0.497 0.231,-0.52C0.236,-0.534 0.239,-0.544 0.239,-0.551C0.239,-0.557 0.236,-0.566 0.231,-0.578Z" style="fill:rgb(242,242,242);fill-rule:nonzero;"/>
        </g>
        <g transform="matrix(400,0,0,400,437.335,326.633)">
            <path d="M0.033,-0.604C0.036,-0.608 0.044,-0.607 0.059,-0.601C0.073,-0.595 0.08,-0.589 0.08,-0.584C0.08,-0.581 0.077,-0.576 0.071,-0.57C0.065,-0.564 0.06,-0.561 0.057,-0.561C0.052,-0.561 0.047,-0.567 0.04,-0.58C0.033,-0.592 0.03,-0.6 0.033,-0.604ZM0.052,-0.449C0.057,-0.456 0.061,-0.459 0.066,-0.459C0.067,-0.459 0.069,-0.458 0.07,-0.456C0.071,-0.453 0.071,-0.45 0.072,-0.446C0.072,-0.441 0.072,-0.436 0.072,-0.43C0.072,-0.424 0.072,-0.418 0.072,-0.411C0.071,-0.404 0.071,-0.398 0.07,-0.391C0.069,-0.384 0.067,-0.376 0.066,-0.369C0.065,-0.362 0.063,-0.355 0.062,-0.348C0.054,-0.319 0.05,-0.295 0.049,-0.275C0.048,-0.263 0.047,-0.255 0.045,-0.251C0.042,-0.247 0.038,-0.244 0.031,-0.243C0.02,-0.242 0.013,-0.244 0.01,-0.251C0.008,-0.258 0.013,-0.292 0.026,-0.351C0.038,-0.41 0.047,-0.443 0.052,-0.449Z" style="fill:rgb(242,242,242);fill-rule:nonzero;"/>
        </g>
        <g transform="matrix(400,0,0,400,472.935,326.633)">
            <path d="M0.145,-0.509C0.155,-0.514 0.177,-0.517 0.21,-0.517C0.243,-0.516 0.267,-0.513 0.282,-0.507C0.295,-0.502 0.306,-0.494 0.316,-0.483C0.325,-0.472 0.328,-0.463 0.324,-0.458C0.322,-0.454 0.31,-0.447 0.287,-0.437C0.265,-0.427 0.239,-0.411 0.208,-0.389C0.186,-0.374 0.173,-0.364 0.17,-0.36C0.167,-0.355 0.168,-0.351 0.174,-0.346C0.183,-0.339 0.192,-0.336 0.2,-0.336C0.209,-0.336 0.217,-0.334 0.224,-0.331C0.231,-0.328 0.235,-0.324 0.235,-0.32C0.235,-0.315 0.216,-0.315 0.178,-0.318L0.121,-0.323L0.084,-0.267C0.058,-0.23 0.046,-0.207 0.048,-0.2C0.05,-0.19 0.079,-0.187 0.134,-0.19C0.189,-0.193 0.241,-0.201 0.289,-0.213C0.343,-0.227 0.372,-0.232 0.376,-0.228C0.381,-0.223 0.379,-0.219 0.372,-0.218C0.37,-0.217 0.357,-0.213 0.332,-0.206C0.307,-0.198 0.293,-0.193 0.29,-0.191C0.285,-0.188 0.273,-0.184 0.253,-0.179C0.232,-0.174 0.213,-0.169 0.195,-0.166C0.182,-0.163 0.148,-0.162 0.094,-0.161C0.069,-0.16 0.051,-0.16 0.041,-0.161C0.029,-0.162 0.021,-0.164 0.016,-0.168C0.01,-0.172 0.008,-0.177 0.01,-0.183C0.012,-0.188 0.017,-0.197 0.024,-0.21C0.035,-0.226 0.04,-0.238 0.04,-0.245C0.04,-0.251 0.049,-0.264 0.066,-0.284C0.08,-0.301 0.087,-0.312 0.087,-0.318C0.086,-0.324 0.078,-0.329 0.063,-0.333C0.05,-0.336 0.04,-0.34 0.034,-0.345C0.02,-0.357 0.024,-0.363 0.046,-0.363C0.054,-0.363 0.065,-0.362 0.079,-0.361L0.133,-0.356L0.182,-0.401C0.215,-0.43 0.234,-0.445 0.239,-0.445C0.245,-0.445 0.252,-0.45 0.26,-0.459C0.267,-0.468 0.269,-0.473 0.266,-0.476C0.261,-0.481 0.244,-0.483 0.215,-0.481C0.186,-0.478 0.165,-0.474 0.152,-0.467C0.121,-0.451 0.105,-0.449 0.105,-0.462C0.105,-0.468 0.109,-0.476 0.118,-0.487C0.127,-0.497 0.136,-0.504 0.145,-0.509ZM0.079,-0.481C0.082,-0.486 0.086,-0.488 0.091,-0.488C0.096,-0.488 0.097,-0.486 0.094,-0.481C0.091,-0.476 0.088,-0.474 0.083,-0.474C0.078,-0.474 0.076,-0.476 0.079,-0.481Z" style="fill:rgb(242,242,242);fill-rule:nonzero;"/>
        </g>
        <g transform="matrix(400,0,0,400,627.735,326.633)">
            <path d="M0.18,-0.518C0.222,-0.537 0.252,-0.536 0.27,-0.513C0.281,-0.5 0.284,-0.488 0.281,-0.478C0.278,-0.468 0.281,-0.453 0.288,-0.434C0.299,-0.409 0.302,-0.382 0.297,-0.355C0.292,-0.328 0.279,-0.303 0.259,-0.28C0.24,-0.257 0.231,-0.251 0.231,-0.262C0.232,-0.27 0.238,-0.283 0.248,-0.301C0.28,-0.358 0.28,-0.399 0.248,-0.426C0.233,-0.439 0.223,-0.445 0.217,-0.445C0.21,-0.445 0.204,-0.442 0.199,-0.435C0.194,-0.428 0.191,-0.42 0.191,-0.411C0.191,-0.4 0.187,-0.392 0.18,-0.389C0.172,-0.386 0.165,-0.389 0.158,-0.398C0.151,-0.407 0.149,-0.416 0.152,-0.425C0.155,-0.434 0.151,-0.438 0.142,-0.438C0.133,-0.438 0.117,-0.426 0.095,-0.401C0.072,-0.376 0.061,-0.358 0.061,-0.348C0.061,-0.337 0.058,-0.329 0.053,-0.324C0.048,-0.319 0.045,-0.302 0.045,-0.273C0.045,-0.244 0.048,-0.225 0.053,-0.214C0.06,-0.201 0.07,-0.195 0.084,-0.195C0.097,-0.194 0.117,-0.2 0.142,-0.212C0.173,-0.226 0.19,-0.232 0.194,-0.23C0.197,-0.228 0.197,-0.223 0.192,-0.216C0.187,-0.208 0.179,-0.2 0.169,-0.192C0.159,-0.183 0.149,-0.177 0.14,-0.174C0.112,-0.163 0.087,-0.16 0.066,-0.165C0.044,-0.17 0.029,-0.182 0.021,-0.202C0.011,-0.225 0.008,-0.252 0.011,-0.284C0.014,-0.316 0.023,-0.345 0.038,-0.372C0.049,-0.391 0.071,-0.418 0.107,-0.454C0.141,-0.49 0.166,-0.511 0.18,-0.518Z" style="fill:rgb(242,242,242);fill-rule:nonzero;"/>
        </g>
        <g transform="matrix(400,0,0,400,750.935,326.633)">
            <path d="M0.037,-0.454C0.037,-0.457 0.039,-0.462 0.042,-0.468C0.045,-0.473 0.049,-0.478 0.054,-0.484C0.059,-0.489 0.064,-0.493 0.069,-0.497C0.074,-0.501 0.078,-0.503 0.081,-0.503C0.082,-0.503 0.084,-0.502 0.085,-0.501C0.086,-0.5 0.087,-0.498 0.088,-0.495C0.088,-0.492 0.088,-0.49 0.088,-0.487C0.087,-0.484 0.086,-0.48 0.085,-0.477C0.084,-0.473 0.082,-0.469 0.08,-0.466C0.066,-0.44 0.057,-0.403 0.053,-0.354C0.048,-0.305 0.052,-0.278 0.063,-0.273C0.071,-0.27 0.092,-0.275 0.127,-0.286C0.18,-0.304 0.207,-0.312 0.207,-0.309C0.207,-0.308 0.202,-0.303 0.193,-0.293C0.173,-0.272 0.145,-0.257 0.11,-0.246C0.074,-0.235 0.049,-0.235 0.034,-0.245C0.021,-0.254 0.013,-0.273 0.011,-0.303C0.008,-0.332 0.012,-0.362 0.022,-0.393C0.032,-0.423 0.037,-0.443 0.037,-0.454ZM0.457,-0.501C0.458,-0.503 0.462,-0.503 0.47,-0.501C0.479,-0.5 0.484,-0.487 0.485,-0.464C0.486,-0.441 0.483,-0.418 0.475,-0.395C0.469,-0.376 0.456,-0.35 0.435,-0.32C0.414,-0.289 0.397,-0.268 0.384,-0.258C0.373,-0.249 0.351,-0.244 0.319,-0.243C0.3,-0.242 0.286,-0.243 0.278,-0.245C0.269,-0.247 0.263,-0.252 0.259,-0.259C0.254,-0.266 0.251,-0.277 0.249,-0.293C0.248,-0.304 0.246,-0.312 0.243,-0.316C0.24,-0.32 0.236,-0.322 0.23,-0.322L0.219,-0.323C0.219,-0.324 0.223,-0.326 0.231,-0.329C0.251,-0.338 0.263,-0.359 0.268,-0.394C0.271,-0.408 0.277,-0.417 0.286,-0.422C0.295,-0.426 0.304,-0.423 0.312,-0.413C0.315,-0.408 0.316,-0.403 0.315,-0.397C0.314,-0.39 0.309,-0.379 0.302,-0.362C0.289,-0.335 0.284,-0.314 0.287,-0.299C0.29,-0.285 0.296,-0.277 0.304,-0.274C0.312,-0.271 0.326,-0.274 0.346,-0.282C0.373,-0.292 0.397,-0.315 0.419,-0.351C0.441,-0.387 0.453,-0.423 0.454,-0.459C0.455,-0.486 0.456,-0.5 0.457,-0.501Z" style="fill:rgb(242,242,242);fill-rule:nonzero;"/>
        </g>
        <g transform="matrix(400,0,0,400,948.535,326.633)">
            <path d="M0.139,-0.517C0.176,-0.526 0.197,-0.531 0.202,-0.531C0.205,-0.532 0.211,-0.53 0.22,-0.525C0.228,-0.52 0.236,-0.514 0.243,-0.508C0.25,-0.502 0.254,-0.498 0.254,-0.496C0.254,-0.493 0.228,-0.491 0.177,-0.49C0.126,-0.489 0.097,-0.486 0.09,-0.48C0.083,-0.475 0.08,-0.463 0.081,-0.444C0.081,-0.424 0.084,-0.408 0.091,-0.395C0.098,-0.381 0.114,-0.366 0.138,-0.349C0.171,-0.325 0.189,-0.303 0.194,-0.284C0.198,-0.264 0.189,-0.241 0.168,-0.215C0.156,-0.2 0.143,-0.187 0.129,-0.176C0.114,-0.165 0.1,-0.156 0.086,-0.15C0.071,-0.144 0.058,-0.141 0.047,-0.141C0.03,-0.141 0.018,-0.143 0.013,-0.148C0.008,-0.152 0.009,-0.158 0.016,-0.167C0.019,-0.172 0.022,-0.174 0.025,-0.174C0.028,-0.173 0.032,-0.17 0.038,-0.165C0.044,-0.16 0.049,-0.157 0.052,-0.157C0.055,-0.157 0.061,-0.16 0.071,-0.166C0.092,-0.179 0.11,-0.195 0.125,-0.212C0.14,-0.229 0.15,-0.245 0.154,-0.258C0.158,-0.27 0.16,-0.279 0.159,-0.284C0.158,-0.289 0.155,-0.294 0.148,-0.301C0.139,-0.312 0.126,-0.321 0.108,-0.33C0.068,-0.35 0.048,-0.383 0.048,-0.429C0.049,-0.456 0.056,-0.475 0.068,-0.487C0.08,-0.498 0.104,-0.508 0.139,-0.517Z" style="fill:rgb(242,242,242);fill-rule:nonzero;"/>
        </g>
        <g transform="matrix(400,0,0,400,1053.73,326.633)">
            <path d="M0.049,-0.57C0.05,-0.574 0.051,-0.577 0.053,-0.579C0.054,-0.581 0.055,-0.582 0.056,-0.582C0.057,-0.581 0.059,-0.58 0.061,-0.577C0.063,-0.574 0.066,-0.57 0.069,-0.564C0.075,-0.556 0.078,-0.547 0.079,-0.537C0.079,-0.527 0.077,-0.506 0.073,-0.473C0.067,-0.426 0.066,-0.4 0.069,-0.397C0.07,-0.395 0.092,-0.404 0.133,-0.425C0.174,-0.446 0.2,-0.46 0.209,-0.468C0.214,-0.473 0.219,-0.473 0.222,-0.468C0.226,-0.461 0.204,-0.439 0.155,-0.401C0.142,-0.391 0.133,-0.383 0.13,-0.378C0.126,-0.373 0.125,-0.365 0.126,-0.355C0.127,-0.345 0.131,-0.338 0.136,-0.333C0.141,-0.328 0.155,-0.32 0.176,-0.309C0.201,-0.297 0.218,-0.288 0.225,-0.282C0.232,-0.276 0.233,-0.27 0.23,-0.264C0.227,-0.259 0.209,-0.263 0.177,-0.275C0.145,-0.287 0.124,-0.298 0.113,-0.308C0.101,-0.319 0.096,-0.33 0.099,-0.341C0.102,-0.352 0.1,-0.359 0.096,-0.361C0.09,-0.362 0.084,-0.358 0.076,-0.349C0.066,-0.338 0.058,-0.315 0.051,-0.28C0.043,-0.232 0.033,-0.208 0.022,-0.207L0.016,-0.209C0.01,-0.213 0.009,-0.227 0.012,-0.252C0.023,-0.332 0.032,-0.404 0.038,-0.467C0.043,-0.528 0.047,-0.563 0.049,-0.57Z" style="fill:rgb(242,242,242);fill-rule:nonzero;"/>
        </g>
        <g transform="matrix(400,0,0,400,1150.13,326.633)">
            <path d="M0.033,-0.604C0.036,-0.608 0.044,-0.607 0.059,-0.601C0.073,-0.595 0.08,-0.589 0.08,-0.584C0.08,-0.581 0.077,-0.576 0.071,-0.57C0.065,-0.564 0.06,-0.561 0.057,-0.561C0.052,-0.561 0.047,-0.567 0.04,-0.58C0.033,-0.592 0.03,-0.6 0.033,-0.604ZM0.052,-0.449C0.057,-0.456 0.061,-0.459 0.066,-0.459C0.067,-0.459 0.069,-0.458 0.07,-0.456C0.071,-0.453 0.071,-0.45 0.072,-0.446C0.072,-0.441 0.072,-0.436 0.072,-0.43C0.072,-0.424 0.072,-0.418 0.072,-0.411C0.071,-0.404 0.071,-0.398 0.07,-0.391C0.069,-0.384 0.067,-0.376 0.066,-0.369C0.065,-0.362 0.063,-0.355 0.062,-0.348C0.054,-0.319 0.05,-0.295 0.049,-0.275C0.048,-0.263 0.047,-0.255 0.045,-0.251C0.042,-0.247 0.038,-0.244 0.031,-0.243C0.02,-0.242 0.013,-0.244 0.01,-0.251C0.008,-0.258 0.013,-0.292 0.026,-0.351C0.038,-0.41 0.047,-0.443 0.052,-0.449Z" style="fill:rgb(242,242,242);fill-rule:nonzero;"/>
        </g>
        <g transform="matrix(400,0,0,400,1185.73,326.633)">
            <path d="M0.081,-0.743C0.084,-0.748 0.101,-0.75 0.135,-0.749C0.167,-0.747 0.196,-0.743 0.221,-0.738C0.256,-0.73 0.287,-0.725 0.312,-0.722C0.341,-0.719 0.357,-0.716 0.362,-0.712C0.366,-0.709 0.357,-0.695 0.336,-0.671C0.315,-0.646 0.298,-0.622 0.285,-0.599C0.274,-0.58 0.267,-0.559 0.262,-0.536C0.257,-0.512 0.25,-0.455 0.239,-0.366C0.232,-0.306 0.226,-0.273 0.221,-0.267C0.216,-0.262 0.215,-0.258 0.218,-0.255C0.221,-0.252 0.22,-0.224 0.214,-0.171C0.207,-0.118 0.202,-0.09 0.197,-0.085C0.191,-0.078 0.161,-0.075 0.107,-0.074C0.053,-0.073 0.023,-0.075 0.017,-0.081C0.004,-0.094 0.012,-0.102 0.041,-0.106L0.096,-0.109C0.11,-0.109 0.121,-0.109 0.129,-0.11C0.136,-0.11 0.144,-0.111 0.151,-0.112C0.158,-0.113 0.163,-0.115 0.166,-0.117C0.169,-0.118 0.171,-0.121 0.174,-0.125C0.176,-0.129 0.177,-0.133 0.178,-0.138C0.178,-0.142 0.178,-0.148 0.178,-0.157C0.178,-0.177 0.18,-0.197 0.185,-0.218C0.19,-0.246 0.198,-0.302 0.207,-0.387C0.216,-0.464 0.223,-0.515 0.229,-0.54C0.234,-0.565 0.245,-0.595 0.262,-0.628C0.278,-0.66 0.283,-0.678 0.277,-0.683C0.272,-0.686 0.263,-0.69 0.25,-0.694C0.236,-0.697 0.22,-0.7 0.202,-0.703C0.183,-0.705 0.166,-0.706 0.149,-0.707C0.13,-0.708 0.117,-0.709 0.109,-0.712C0.1,-0.714 0.094,-0.718 0.089,-0.724C0.081,-0.733 0.078,-0.74 0.081,-0.743Z" style="fill:rgb(242,242,242);fill-rule:nonzero;"/>
        </g>
    </g>
</svg>
